<svg xmlns="http://www.w3.org/2000/svg" width="13" height="13" viewBox="0 0 13 13">
  <path fill="rgb(51,51,51)" fill-rule="evenodd" d="M8.66666722 3.79166675c0 1.19491648-.97175026 2.16666674-2.16666722 2.16666674-1.19491673 0-2.1666665-.97175026-2.1666665-2.16666674C4.3333335 2.59675002 5.30508326 1.625 6.5 1.625c1.19491696 0 2.16666722.97175002 2.16666722 2.16666675zM6.5 2.70833325c.59745812 0 1.08333325.4858749 1.08333325 1.08333326C7.58333325 4.38912487 7.09745812 4.875 6.5 4.875c-.59745836 0-1.0833335-.48587513-1.0833335-1.0833335 0-.59745835.48587514-1.08333325 1.0833335-1.08333325zm3.79166722 8.12499977c0 .29900074-.2421255.54166698-.54166698.54166698-.29954147 0-.54166699-.24266624-.54166699-.54166698C9.20833325 9.33995819 7.99337506 8.125 6.5 8.125c-1.49337482 0-2.7083335 1.2149582-2.7083335 2.70833302 0 .29900074-.24212503.54166698-.5416665.54166698-.29954171 0-.54166675-.24266624-.54166675-.54166698C2.70833325 8.7425003 4.40970802 7.0416665 6.5 7.0416665c2.09029222 0 3.79166722 1.7008338 3.79166722 3.7916665z"/>
</svg>
