<svg xmlns="http://www.w3.org/2000/svg" width="21.837" height="21" viewBox="0 0 21.837 21">
  <g>
    <path fill="rgb(0,63,186)" fill-rule="evenodd" d="M14.57108031 19.09777832H4.30174743v1.51055908c0 .21594239-.17883301.3916626-.39866638.3916626H2.6023303c-.21983337 0-.39865112-.17572021-.39865112-.3916626v-1.51055908h-.34170532c-.56608582 0-1.02511597-.45092773-1.02511597-1.00701904v-4.25201416c0-.55609131.45903015-1.00701905 1.02511597-1.00701905h15.14888c.56608582 0 1.02511597.45092774 1.02511597 1.00701905v4.25201416c0 .5560913-.45903015 1.00701904-1.02511597 1.00701904h-.34170532v1.51055908c0 .21594239-.1776886.3916626-.39866638.3916626h-1.30075073c-.21983338 0-.39865113-.17572021-.39865113-.3916626v-1.51055908zm1.81330872-3.1329956c0-.53790284-.4445343-.97460938-.99208069-.97460938-.54754639 0-.99208069.43670654-.99208069.97460937 0 .53790284.4445343.97460938.9920807.97460938.54754638 0 .99208068-.43670654.99208068-.97460938zM3.5374652 15.18151854c.54754639 0 .99208069.43670655.99208069.97460938 0 .53790283-.4445343.97460937-.99208069.97460937-.54754639 0-.99208069-.43670654-.99208069-.97460937s.4445343-.97460938.9920807-.97460938z"/>
    <path fill="rgb(0,63,186)" fill-rule="evenodd" d="M21.8368579 5.15716553C21.8368579 2.31085205 19.48453246 0 16.58713256 0c-2.89738464 0-5.24971008 2.31085205-5.24971008 5.15716553 0 2.8463745 2.35232544 5.15722656 5.24971008 5.15722656 2.8973999 0 5.24972534-2.31085205 5.24972534-5.15722656zm-4.9250946-.48669434V2.68768311c0-.09844971-.082016-.17901612-.18223572-.17901612h-.28475952c-.1013794 0-.18223572.0805664-.18223572.17901612v1.98278808c0 .09954834-.082016.17901611-.18225098.17901611H14.1530658c-.10136414 0-.18223572.08056641-.18223572.17901612V5.269104c0 .09954834.082016.17901612.18223572.17901612h1.92721557c.1013794 0 .18225098.0805664.18225098.17901611v2.00292969c0 .09954834.08200073.17901611.18223572.17901611h.28475952c.10136413 0 .18223572-.0805664.18223572-.17901611V5.62713623c0-.09954834.08201599-.17901611.18223571-.17901611h1.92721558c.1013794 0 .18225098-.0805664.18225098-.17901612v-.24060058c0-.09954834-.082016-.17901612-.18225098-.17901612h-1.92721558c-.10136413 0-.18223571-.0805664-.18223571-.1790161z"/>
    <path fill="none" stroke="rgb(0,63,186)" stroke-dasharray="0 0 0 0" stroke-linecap="butt" stroke-linejoin="miter" stroke-width="1" d="M10.24928771 7.34893799H6.17654906c-1.55018615 0-2.86689758 1.09320068-3.09584045 2.57019043l-.72839356 3.88867187 14.25305176.49127198-.51370239-2.94836426c-.03334045.00054931-.0667572.00079345-.10023499.00079345-2.66497802 0-4.93060302-1.67608642-5.74214172-4.00256347z"/>
  </g>
</svg>
