<svg xmlns="http://www.w3.org/2000/svg" xmlns:xlink="http://www.w3.org/1999/xlink" width="14" height="14" viewBox="0 0 14 14">
  <defs>
    <path id="path-1" fill-rule="evenodd" d="M6.58740854 12.07850003c.10908318.11024952.25783348.1715002.41241646.1715002.15516663 0 .30333328-.06125068.4130001-.17091655l4.53133345-4.53891659c1.1876669-1.19000053 1.1876669-3.1260836-.00058364-4.3160839-.57341671-.57399989-1.33933354-.89074994-2.15483284-.89074994-.81666756 0-1.58200074.31675005-2.15600014.89133335l-.63291693.6335001-.63291645-.63408351c-.57341671-.57399989-1.33933353-.89074994-2.15541697-.89074994-.81608343 0-1.5814166.31675005-2.15541648.89074994-1.18766672 1.1900003-1.18766672 3.12608337 0 4.3160839l4.53133344 4.53833294zM2.88149166 4.04891682C3.2349918 3.69483328 3.70749187 3.5 4.21149158 3.5c.50458336 0 .97650004.19483328 1.32999993.54833317l1.04533338 1.04766655c.21933365.21991682.60666705.21991682.82600022 0l1.04533338-1.0470829c.70699978-.70758343 1.95299912-.70875025 2.65999985 0 .73441696.73499965.73441696 1.9314165 0 2.6675837L6.999825 10.8412497 2.88207507 6.71650052c-.73441672-.7361672-.73441672-1.93258405-.0005834-2.6675837z"/>
    <mask id="mask-2" maskContentUnits="userSpaceOnUse" maskUnits="userSpaceOnUse">
      <rect width="14" height="14" x="0" y="0" fill="black"/>
      <use fill="white" xlink:href="#path-1"/>
    </mask>
  </defs>
  <g>
    <use fill="rgb(79,79,79)" xlink:href="#path-1"/>
    <g mask="url(#mask-2)"/>
  </g>
</svg>
