<svg xmlns="http://www.w3.org/2000/svg" xmlns:xlink="http://www.w3.org/1999/xlink" width="24" height="24" viewBox="0 0 24 24">
  <defs>
    <path id="path-1" fill-rule="evenodd" d="M4.18499994 7H3c-.55299997 0-1-.44700003-1-1s.44700003-1 1-1h1.18499994C4.59899998 3.83899999 5.69799995 3 7 3s2.40100002.83899999 2.81500053 2H21c.5529995 0 1 .44700003 1 1s-.4470005 1-1 1H9.81500053C9.40100003 8.1609993 8.30200005 9 7 9c-1.30200005 0-2.40100002-.8390007-2.81500006-2zM7 5c.55200005 0 1 .44799995 1 1s-.44799995 1-1 1-1-.44799995-1-1 .44799995-1 1-1zm9.18500137 6C16.59899902 9.83899975 17.69799995 9 19 9c1.65399933 0 3 1.34599972 3 3 0 1.65399933-1.34600067 3-3 3-1.30200005 0-2.40100098-.8390007-2.81499863-2H3c-.55299997 0-1-.4470005-1-1s.44700003-1 1-1h13.18500137zM19 13c-.55200005 0-1-.44799995-1-1s.44799995-1 1-1 1 .44799995 1 1-.44799995 1-1 1zm-5.18500042 4H21c.5529995 0 1 .4470005 1 1s-.4470005 1-1 1h-7.18500042C13.40100002 20.1609993 12.30200005 21 11 21c-1.30200005 0-2.40100002-.8390007-2.81500053-2H3c-.55299997 0-1-.4470005-1-1s.44700003-1 1-1h5.18499947C8.59899997 15.83899975 9.69799995 15 11 15c1.30200005 0 2.40100002.83899975 2.81499958 2zM10 18c0 .55200005.44799995 1 1 1s1-.44799995 1-1-.44799995-1-1-1-1 .44799995-1 1z"/>
    <mask id="mask-2" maskContentUnits="userSpaceOnUse" maskUnits="userSpaceOnUse">
      <rect width="24" height="24" x="0" y="0" fill="red"/>
      <use fill="white" xlink:href="#path-1"/>
    </mask>
  </defs>
  <g>
    <use fill="rgb(0,63,186)" fill-opacity=".66" xlink:href="#path-1"/>
    <g mask="url(#mask-2)"/>
  </g>
</svg>
