<svg xmlns="http://www.w3.org/2000/svg" width="20.5" height="21" viewBox="0 0 20.5 21">
  <g>
    <path fill="rgb(0,0,0)" fill-rule="evenodd" d="M10.29485245 0l-.04485286.04594683L10.2040254 0h.09082704z"/>
    <path fill="rgb(255,255,255)" fill-rule="evenodd" d="M10.29485245 0l-.04485286.04594683L10.2040254 0h.09082704z"/>
    <path fill="rgb(255,255,255)" fill-rule="evenodd" d="M10.29485245 0l-.04485286.04594683L10.2040254 0h.09082704z"/>
    <path fill="rgb(0,63,186)" fill-rule="evenodd" d="M20.5 21v-9.73388672c0-.46057129-.17941284-.9039917-.49786758-1.2302246L11.44981384 1.2750244c-.66270065-.67889404-1.73804855-.67889404-2.4007492 0L.49674606 10.03588867C.17941284 10.36212158 0 10.80438232 0 11.26611328V21h7.11478424v-4.3213501c0-1.7803955 1.4083786-3.22314453 3.14642716-3.22314453 1.73804855 0 3.14642715 1.44274902 3.14642715 3.22314453V21H20.5z"/>
  </g>
</svg>
