<svg xmlns="http://www.w3.org/2000/svg" xmlns:xlink="http://www.w3.org/1999/xlink" width="18" height="18" viewBox="0 0 18 18">
  <defs>
    <path id="path-1" fill-rule="evenodd" d="M16.29347634 7.86525011c.26174927.11175013.43799973.36149931.45524979.64574957.01649857.28425026-.12825012.55350113-.375.69449997l-1.69350147.97200012 1.61400127.68774939c.26099968.11174965.43725014.36225128.4545002.64575004.01649857.28425026-.12825012.55350113-.375.69449997L10.37372518 15.650249c-.11625004.06675148-.24450016.09975052-.37349987.09975052-.12899971 0-.25800038-.03299904-.37349987-.09975052L3.6267252 12.20549917c-.24675012-.14099884-.39225006-.4102497-.37500024-.69449997.0165-.28425026.19275021-.5340004.4545002-.64575004l1.6139996-.68699885-1.69349956-.97275066c-.24675012-.14099884-.39225006-.41024971-.37500024-.69449997.0165-.28425026.19275021-.53399944.4545002-.64574957l1.6139996-.6869998-1.69349956-.97275018c-.24675012-.14100027-.39225006-.4102502-.37500024-.69449997.0165-.2835002.19275021-.53399992.4545002-.64575005l6.00000047-2.55524993c.1875-.08025002.39974976-.08025002.58724976 0l6.00000095 2.55524993c.26174927.11175013.43799973.36224985.45524979.64575005.01649857.28424978-.12825012.5534997-.375.69449997l-1.69425106.97275018 1.61400127.6869998zm-6.29325103-4.05000019L14.320225 5.65499973 10.0002253 8.1352501 5.6802249 5.65499973l4.3200004-1.83974981zm0 5.93475008c-.12899971 0-.25800038-.033-.37349987-.09975052L6.9507246 8.11349964l-1.2704997.5415001 4.3200004 2.48024987 4.3199997-2.48024988-1.27050018-.54150009-2.67599964 1.53674984C10.25747514 9.71700001 10.12922502 9.75 10.0002253 9.75zm0 4.38524961l4.31999969-2.4802494-1.27050018-.5415001-2.67599964 1.5367489c-.11625004.06675147-.24450016.09975051-.37349987.09975051-.12899971 0-.25800038-.03299904-.37349987-.09975052L6.9507246 11.1142497l-1.2704997.54075051 4.3200004 2.4802494z"/>
    <mask id="mask-2" maskContentUnits="userSpaceOnUse" maskUnits="userSpaceOnUse">
      <rect width="18" height="18" x="0" y="0" fill="black"/>
      <use fill="white" xlink:href="#path-1"/>
    </mask>
  </defs>
  <g>
    <use fill="rgb(79,79,79)" xlink:href="#path-1"/>
    <g mask="url(#mask-2)"/>
  </g>
</svg>
