<svg xmlns="http://www.w3.org/2000/svg" xmlns:xlink="http://www.w3.org/1999/xlink" width="22" height="22" viewBox="0 0 22 22">
  <defs>
    <path id="path-1" fill-rule="evenodd" d="M6.41666698 3.66666675c.5041666 0 .91666651.41250014.91666651.91666674S6.9208336 5.5 6.416667 5.5H5.5v10.99999976h.91666698c.5041666 0 .91666651.41250038.91666651.91666603 0 .50416756-.4124999.91666794-.9166665.91666794h-1.8333335c-.5041666 0-.91666674-.41250038-.91666674-.91666794V4.5833335c0-.5041666.41250014-.91666674.91666674-.91666674H6.416667zm8.80999065 2.91664958c.41341782-.29241658.98541641-.19158316 1.2769165.22275018l2.5795021 3.6666658c.22916413.32450103.22183228.75991725-.01650237 1.07708358l-2.75 3.66666603c-.17966461.24016762-.45558167.3666668-.73424912.3666668-.1906662 0-.3840828-.05958176-.5490837-.18333245-.40516663-.3034172-.48674966-.8781662-.18333245-1.2824173l1.65091515-2.20091628H9.16657519c-.50600052 0-.91666698-.40974999-.91666698-.91666603 0-.506917.41066646-.91666699.91666698-.91666699h7.33333302c.02750015 0 .05133438.01375008.07883453.01649952l-1.57483482-2.23941612c-.2915001-.41341663-.19158363-.98541665.2227497-1.27691674z"/>
    <mask id="mask-2" maskContentUnits="userSpaceOnUse" maskUnits="userSpaceOnUse">
      <rect width="22" height="22" x="0" y="0" fill="black"/>
      <use fill="white" xlink:href="#path-1"/>
    </mask>
  </defs>
  <g>
    <use fill="rgb(0,63,186)" xlink:href="#path-1"/>
    <g mask="url(#mask-2)"/>
  </g>
</svg>
