<svg xmlns="http://www.w3.org/2000/svg" xmlns:xlink="http://www.w3.org/1999/xlink" width="31.111" height="31.111" viewBox="0 0 31.111 31.111">
  <defs>
    <path id="path-1" fill-rule="evenodd" d="M21.27222204 5.29938889l5.18518448 2.33074092c.46537209.20870352.76481629.67148114.76481629 1.18222237v15.81740618c0 .4394455-.22296334.84907532-.59240723 1.08889007-.21259308.1374073-.45759392.207407-.70388985.207407-.18018532 0-.36166572-.03759193-.53148079-.1140747l-4.65370369-2.09092522-4.6537056 2.09092521c-.0181465.00907517-.04148101.00518609-.06092452.01296425-.15166665.06092453-.30851937.10111046-.47055626.10111046-.1620369 0-.31888962-.04018593-.47055626-.10111046-.02074051-.00777816-.04148102-.00388908-.06092453-.01296425l-4.65370322-2.09092521-4.65370416 2.09092521c-.16981507.07648278-.35129643.11407471-.53148174.11407471-.24629641 0-.4912963-.0699997-.7038889-.207407-.36944437-.23981475-.59240722-.64944458-.59240722-1.08889007V8.81235218c0-.51074123.29944467-.97351885.76481485-1.18222237L9.83888817 5.2993889c.01814842-.00907422.04018593-.01037026.05833435-.01814795.05574036-.02074099.11148071-.03629637.16851807-.0505557.0466671-.01166678.0920372-.02333356.13999938-.02851868.05703736-.00648117.11277867-.0077777.16981507-.0077777.05185222 0 .10240745.00129653.15296364.0077777.05185127.00518512.10240745.0168519.15296268.02981472.05444431.01425934.10759258.02851867.16074085.04925966.01944447.0077777.04018498.00907373.05962944.01814795l4.65370322 2.09092617 4.65370369-2.09092617c.01814842-.00907422.04018592-.01037026.05833435-.01814795.05574035-.02074099.11148071-.03629637.16851806-.0505557.0466671-.01166678.0920372-.02333356.1399994-.02851868.05703735-.00648117.1127777-.0077777.16981506-.0077777.05185318 0 .10240745.00129653.15296363.0077777.05185128.00518512.10240746.0168519.15296364.02981472.05444336.01425934.10759163.02851867.1607399.04925966.01944351.0077777.04018593.00907373.05962944.01814795zM6.48148155 9.64975929L9.0740738 8.48568535v12.97592687l-2.59259224 1.16407395V9.64975929zm7.77777815 0l-2.59259272-1.16407394v12.97592687l2.59259272 1.16407395V9.64975929zm2.59259224 0l2.59259224-1.16407394v12.97592687l-2.59259224 1.16407395V9.64975929zm7.77777672 12.97592688l-2.59259224-1.16407395V8.48568535l2.59259224 1.16407394v12.97592688z"/>
    <mask id="mask-2" maskContentUnits="userSpaceOnUse" maskUnits="userSpaceOnUse">
      <rect width="31.111" height="31.111" x="0" y="0" fill="black"/>
      <use fill="white" xlink:href="#path-1"/>
    </mask>
  </defs>
  <g>
    <use fill="rgb(0,63,186)" xlink:href="#path-1"/>
    <g mask="url(#mask-2)"/>
  </g>
</svg>
