<svg xmlns="http://www.w3.org/2000/svg" width="23" height="21" viewBox="0 0 23 21">
  <g>
    <path fill="rgb(0,63,186)" fill-rule="evenodd" d="M3.43704224 15.66619873h16.1246643C21.46138 15.66619873 23 14.16967773 23 12.32324219V3.34417725C23 1.496521 21.46012878 0 19.56170654 0H3.43704224C1.53862 0 0 1.4977417 0 3.34417725v8.97906494c0 1.84643554 1.53862 3.34295654 3.43704224 3.34295654zm4.60578918-7.53271484c0-.87524414-.73057556-1.58581543-1.63044739-1.58581543-.89988708 0-1.63046264.71057129-1.63046264 1.58581543 0 .87524414.73057556 1.58581543 1.63046264 1.58581543.89987183 0 1.6304474-.7105713 1.6304474-1.58581543zm3.6471405-1.58581543c.89987183 0 1.6304474.71057129 1.6304474 1.58581543 0 .87524414-.73057557 1.58581543-1.6304474 1.58581543-.89988708 0-1.63046264-.7105713-1.63046264-1.58581543 0-.87524414.73057556-1.58581543 1.63046264-1.58581543zm6.99359131 1.58581543c0-.87524414-.73057556-1.58581543-1.63044739-1.58581543-.89988708 0-1.63046264.71057129-1.63046264 1.58581543 0 .87524414.73057556 1.58581543 1.63046264 1.58581543.89987183 0 1.6304474-.7105713 1.6304474-1.58581543z"/>
    <path fill="rgb(0,63,186)" fill-rule="evenodd" d="M18.68356747 11L5.7418215 20.60652516c-.54096925.39348484-1.42287495.09420086-1.42287495-.4827794V11h14.36462093z"/>
  </g>
</svg>
