<svg xmlns="http://www.w3.org/2000/svg" width="16.52" height="21.16" viewBox="0 0 16.52 21.16">
  <g>
    <ellipse cx="8.262" cy="1.668" fill="rgb(0,63,186)" rx="1.626" ry="1.668"/>
    <path fill="rgb(0,63,186)" fill-rule="evenodd" d="M11.68896484 17.64868164c0-1.93798828-1.53344726-3.51135254-3.42227172-3.51135254-1.88879395 0-3.42224122 1.57336426-3.42224122 3.51135254 0 .1185913.0057373.2357788.01693726.35131836h6.81063843c.01119995-.11553955.01693725-.23272705.01693725-.35131836zm-.54837036 1.90618897H5.39282227c.61004638.96569824 1.66973877 1.60516357 2.87387085 1.60516357 1.2041626 0 2.26385498-.63946533 2.87390136-1.60516357z"/>
    <path fill="rgb(0,63,186)" fill-rule="evenodd" d="M15.26129067 18.85280626H1.26318872l.5207294-3.89051695.13438177-1.01112076.07167028-.5331364s.00111985-.001149 0-.002298l1.29230478-9.66309731c.19037418-1.42591008 1.37741323-2.48758688 2.77946312-2.48758688h4.48051247c1.41548807 0 2.61036605 1.08235881 2.78506237 2.5243549l1.93397776 15.0634014z"/>
    <path fill="rgb(0,63,186)" fill-rule="evenodd" d="M3.16581074 17.22237402c-.1511795.88702867-.89251898 1.56723719-1.76824024 1.62583623-.01119848.001149-.02127712.001149-.0324756.002298C.50281182 18.8930213 0 17.8531755.54760575 17.16837098c.52296909-.6526325.94291215-1.39718505 1.23519251-2.20723067.0324756.008043.06383135.01838402.09630695.02987403.8746014.29874022 1.460282 1.22023892 1.28670553 2.23135968z"/>
    <path fill="rgb(0,63,186)" fill-rule="evenodd" d="M13.35418926 17.22237402c.1511795.88702867.89251898 1.56723719 1.76824024 1.62583623.01119848.001149.02127712.001149.0324756.002298.86228308.04251304 1.3650949-.99733275.81748915-1.68213727-.52296909-.6526325-.94291215-1.39718505-1.23519251-2.20723067-.0324756.008043-.06383135.01838402-.09630695.02987403-.8746014.29874022-1.460282 1.22023892-1.28670553 2.23135968z"/>
  </g>
</svg>
